<svg width="300" height="300" xmlns="http://www.w3.org/2000/svg">
 <!-- Created with Method Draw - http://github.com/duopixel/Method-Draw/ -->

 <g>
  <title>background</title>
  <rect x="-1" y="-1" width="302" height="302" id="canvas_background" fill="none"/>
  <g id="canvasGrid" display="none">
   <rect id="svg_1" width="100%" height="100%" x="0" y="0" stroke-width="0" fill="url(#gridpattern)"/>
  </g>
 </g>
 <g>
  <title>Layer 1</title>
  <rect fill="#46ba14" stroke="#000" stroke-width="15" stroke-opacity="null" x="25" y="24.999992" width="250" height="250" id="svg_62" rx="76"/>
  <ellipse fill="#ffffff" stroke-width="15" stroke-opacity="null" cx="212.226691" cy="141.497901" id="svg_71" rx="35.97379" ry="35.973789" stroke="#000"/>
  <ellipse fill="#ffffff" stroke-width="15" stroke-opacity="null" cx="86.834853" cy="141.497901" id="svg_70" rx="35.97379" ry="35.973789" stroke="#000"/>
  <ellipse fill="#ffffff" stroke-width="15" stroke-opacity="null" cx="150.000004" cy="172.579165" id="svg_7" rx="46.000005" ry="46.000003" stroke="#000"/>
  <ellipse fill="#000000" stroke="#000" stroke-opacity="null" cx="-33.5" cy="241" id="svg_16"/>
  <ellipse fill="none" stroke-width="15" cx="150.000002" cy="178.579165" id="svg_14" rx="21.999999" ry="21.999999" stroke="#000000"/>
  <rect fill="#ffffff" stroke-width="15" x="118.999998" y="148.480801" width="61.999998" height="29.000001" id="svg_15"/>
  <ellipse fill="#000000" stroke-width="0" cx="128" cy="178.5" id="svg_17" rx="7.5" ry="7.5" stroke="#000000"/>
  <ellipse fill="#000000" stroke-width="0" cx="172.046486" cy="179.5" id="svg_18" rx="7.5" ry="7.5" stroke="#BF7E96"/>
  <ellipse fill="#46ba14" stroke-width="15" stroke-opacity="null" cx="251.11409" cy="41.281139" id="svg_21" rx="23" ry="33.000001" stroke="#000" transform="rotate(45 251.1140899658203,41.28113937377931) "/>
  <ellipse fill="#000000" stroke="#000" stroke-opacity="null" cx="-33.5" cy="241" id="svg_47"/>
  <ellipse fill="#000000" stroke="#000" stroke-width="0" stroke-opacity="null" cx="211.143895" cy="141.5" id="svg_6" rx="17.5" ry="17.5"/>
  <ellipse fill="#ffffff" stroke-width="0" stroke-opacity="null" cx="212.046486" cy="140.5" id="svg_30" rx="7.5" ry="7.5" stroke="#000"/>
  <ellipse fill="#000000" stroke="#000" stroke-width="0" stroke-opacity="null" cx="88" cy="141.5" id="svg_4" rx="17.5" ry="17.5"/>
  <ellipse fill="#ffffff" stroke-width="0" stroke-opacity="null" cx="88.784469" cy="140.5" id="svg_31" rx="7.5" ry="7.5" stroke="#000"/>
  <ellipse fill="#46ba14" stroke-width="15" stroke-opacity="null" cx="56.877852" cy="41.281139" id="svg_63" rx="23" ry="33.000001" stroke="#000" transform="rotate(-45 56.87785339355467,41.28113937377928) "/>
  <line fill="none" stroke="#000" stroke-width="15" stroke-opacity="null" fill-opacity="null" x1="150.5" y1="196.2" x2="150.5" y2="165.183875" id="svg_64" stroke-linejoin="null" stroke-linecap="null"/>
  <line fill="none" stroke="#000" stroke-width="15" stroke-opacity="null" fill-opacity="null" x1="150.5" y1="167.2" x2="134.375485" y2="151.075485" id="svg_65" stroke-linejoin="null" stroke-linecap="null"/>
  <ellipse fill="#000000" stroke-width="0" cx="136" cy="152.5" id="svg_67" rx="7.5" ry="7.5" stroke="#000000"/>
  <line fill="none" stroke="#000" stroke-width="15" stroke-opacity="null" fill-opacity="null" x1="166.5" y1="168.2" x2="150.375485" y2="152.075485" id="svg_68" stroke-linejoin="null" stroke-linecap="null" transform="rotate(90 158.437744140625,160.13774108886722) "/>
  <ellipse fill="#000000" stroke-width="0" cx="166" cy="152.5" id="svg_69" rx="7.5" ry="7.5" stroke="#000000"/>
 </g>
</svg>