<svg width="300" height="300" xmlns="http://www.w3.org/2000/svg">
 <!-- Created with Method Draw - http://github.com/duopixel/Method-Draw/ -->

 <g>
  <title>background</title>
  <rect x="-1" y="-1" width="302" height="302" id="canvas_background" fill="none"/>
  <g id="canvasGrid" display="none">
   <rect id="svg_1" width="100%" height="100%" x="0" y="0" stroke-width="0" fill="url(#gridpattern)"/>
  </g>
 </g>
 <g>
  <title>Layer 1</title>
  <ellipse stroke="#000" fill="#3f007f" stroke-width="15" stroke-opacity="null" cx="140.500053" cy="163.499818" id="svg_3" rx="116.000223" ry="116.000223"/>
  <ellipse transform="rotate(21.54461669921875 175.24496459960946,91.29531097412116) " stroke="#000" fill="#3f007f" stroke-width="15" cx="175.244965" cy="91.295312" id="svg_10" rx="33.33218" ry="23.912215"/>
  <rect stroke="#000" transform="rotate(28.096811294555664 188.42172241210938,67.32221221923828) " id="svg_6" height="59.921098" width="48.6626" y="37.361655" x="164.090416" stroke-width="0" fill="#3f007f"/>
  <line transform="rotate(7.288398742675781 158.49978637695338,55.50119018554674) " stroke="#000" stroke-linecap="null" stroke-linejoin="null" id="svg_9" y2="32.001509" x2="168.749644" y1="79.000873" x1="148.249922" stroke-width="15" fill="none"/>
  <line stroke-linecap="null" stroke-linejoin="null" id="svg_8" y2="62.501099" x2="223.248919" y1="109.500463" x1="202.749197" stroke-width="15" stroke="#000" fill="none"/>
  <ellipse transform="rotate(25.048330307006836 198.24465942382804,53.295852661132834) " stroke="#000" fill="#3f007f" stroke-width="15" cx="198.244648" cy="53.295855" id="svg_7" rx="33.33218" ry="23.912215"/>
  <ellipse stroke="#ffffff" ry="18.499751" rx="15.49975" id="svg_19" cy="106.000559" cx="103.250527" stroke-width="0" fill="#ffffff"/>
  <ellipse stroke="#ffffff" ry="10.999853" rx="9.999853" id="svg_18" cy="137.000091" cx="79.250825" stroke-width="0" fill="#ffffff"/>
  <path transform="rotate(9.49059009552002 238.56513977050787,39.05746078491205) " stroke="#000000" id="svg_23" d="m192.01111,65.56578c0,0 17.94762,-47.76857 38.26026,-52.61317c20.31263,-4.84461 36.63648,-3.43051 45.04171,-2.73842c8.40522,0.69209 1.40087,5.53669 1.40087,5.53669c0,0 8.40523,1.38418 8.40523,1.38418c0,0 -6.30393,6.22877 -6.30393,6.22877c0,0 6.30393,6.92087 6.30393,7.61296c0,0.69208 -17.5109,-1.38418 -17.5109,-1.38418c0,0 -21.01307,-5.53669 -36.42266,2.76835c-15.40958,8.30504 -20.31263,35.9885 -20.31263,35.9885c0,0 -4.67806,0.84977 -9.406,-0.36138c-4.72794,-1.21115 -7.44484,-4.5331 -9.45588,-2.4223z" stroke-width="6" fill="#af9b87"/>
  <path d="m212.500132,44.999748c0,0 -0.824432,-1.097893 -2,-3.000008c-0.525726,-0.850655 0,-2.000004 0,-4.000011c0,-2.000004 0,-5.000011 0,-7.000019l0,-1.000004l0,-1" id="svg_24" stroke-opacity="null" stroke-width="0" stroke="#000" fill="none"/>
  <path d="m270.249766,276.999737c0,0 0,-3.999969 0,-9.499969c0,-6.5 3.851898,-11.233582 5.499969,-17.999969c1.071472,-4.399063 0.189301,-9.509644 0.5,-14.499969c0.500977,-8.046661 1.5,-10.499969 1.5,-11.499969l0,-1" id="svg_27" stroke-width="0" stroke="#000000" fill="none"/>
  <path d="m207.249888,32.500244c0,0 -0.125977,0.44025 -1.5,3.499992c-1.103027,2.456276 -1.5,3.499992 -1.5,3.999992c0,0.499996 0,0.999996 0,1.999992c0,1 0,1.5 0,1.5c0,0.499996 0.308655,1.538055 0.5,1.999996c0.270599,0.653278 1,0.999996 1.5,1.999996c0.5,0.999996 0.80867,1.538055 1,1.999992c0.270584,0.653275 0.999985,1 1.499985,1.5l0,0.499996l0.5,0" id="svg_30" stroke-width="2" stroke="#000000" fill="none"/>
  <path d="m227.249842,14.500279c0,0 -0.5,0.5 -1.5,1.499998c-1.5,1.499996 -2.229401,2.84671 -2.5,3.499992c-0.191345,0.461939 0.114883,1.013374 0,1.499996c-0.256866,1.088123 -0.5,1.499998 -0.5,1.999996c0,0.999998 0,1.499998 0,1.999996c0,0.5 0,1.499996 0,1.999996c0,0.499998 0,0.999998 0,1.999994c0,1 0,1.999996 0,2.499996c0,0.5 0.5,1 0.5,1.499996l0.5,0l0.5,0.5" id="svg_31" stroke-width="2" stroke="#000000" fill="none"/>
  <path d="m255.249781,11.500285c0,0 0.153275,1.2294 -0.5,1.499997c-1.847763,0.765368 -3.499985,0.999998 -4.499985,1.499996c-1,0.5 -2,0.999998 -2.5,1.499998c-0.5,0.499998 -1,0.999998 -1.5,1.499996c-0.5,0.5 -1.69342,1.958799 -2.999985,2.499994c-0.461945,0.191341 -0.270248,0.526751 -0.5,1.499998c-0.256866,1.088123 -0.5,1.499996 -0.5,1.999996c0,0.999998 0,1.499996 0,1.999996l0,0.499998l0,0.499998" id="svg_32" stroke-width="2" stroke="#000000" fill="none"/>
  <path d="m272.749735,17.500273c0,0 -0.411865,1.243126 -1.499969,1.499996c-0.973236,0.229757 -2.193451,1.458801 -3.5,1.999996c-0.461945,0.191341 -0.885132,1.013374 -1,1.499998c-0.256866,1.088123 -1.243134,1.411871 -1.5,2.499994c-0.114868,0.486624 -0.885132,1.013374 -1,1.499996c-0.256866,1.088123 -0.84671,1.729399 -1.5,1.999998c-0.461945,0.191341 -0.729401,0.346714 -1,0.999996c-0.191345,0.461941 -0.5,1.499996 -0.5,1.999996l0,0.5l0,0.5" id="svg_33" stroke-width="2" stroke="#000000" fill="none"/>
 </g>
</svg>